<?xml version="1.0" standalone="no"?>
<!DOCTYPE svg PUBLIC "-//W3C//DTD SVG 20010904//EN"
 "http://www.w3.org/TR/2001/REC-SVG-20010904/DTD/svg10.dtd">
<svg version="1.0" xmlns="http://www.w3.org/2000/svg"
 width="260.000000pt" height="260.000000pt" viewBox="0 0 260.000000 260.000000"
 preserveAspectRatio="xMidYMid meet">
<metadata>
Created by potrace 1.11, written by Peter Selinger 2001-2013
</metadata>
<g transform="translate(0.000000,260.000000) scale(0.100000,-0.100000)"
fill="#000000" stroke="none">
<path d="M1195 2592 c-2 -2 -27 -6 -57 -8 -47 -3 -93 -10 -93 -14 0 -1 -13 -3
-30 -5 -16 -2 -41 -7 -55 -11 -14 -4 -28 -7 -32 -6 -5 1 -8 -3 -8 -10 0 -6 -3
-8 -7 -5 -3 4 -11 3 -17 -2 -6 -5 -22 -11 -36 -13 -14 -1 -27 -6 -30 -9 -3 -3
-34 -21 -70 -40 -36 -18 -69 -37 -75 -41 -5 -4 -48 -36 -95 -70 -167 -124
-258 -216 -358 -365 -23 -34 -42 -65 -42 -69 0 -4 -7 -15 -16 -25 -8 -9 -16
-24 -18 -32 -1 -8 -9 -26 -19 -40 -9 -15 -19 -34 -20 -44 -2 -10 -9 -31 -16
-48 -23 -59 -30 -81 -41 -123 -29 -112 -38 -211 -34 -362 3 -127 6 -160 20
-220 3 -14 8 -34 10 -46 6 -33 40 -134 68 -201 121 -292 387 -556 676 -669 81
-32 94 -37 105 -40 6 -1 44 -11 85 -22 128 -35 259 -44 415 -27 44 4 95 8 113
9 17 0 32 4 32 9 0 4 4 6 8 3 4 -3 28 0 53 6 60 14 61 14 84 23 117 46 171 70
173 77 2 4 12 8 21 8 10 0 28 9 41 20 13 11 27 20 32 20 5 0 14 4 21 10 7 5
46 35 87 66 106 79 210 189 277 291 21 32 41 60 44 63 3 3 21 37 40 75 19 39
38 73 42 76 5 3 8 8 6 10 -1 2 12 47 29 99 30 92 41 137 47 190 2 14 4 25 5
25 4 0 9 92 9 180 0 101 -4 153 -13 162 -3 3 -1 12 5 20 6 7 7 13 2 13 -5 0
-10 6 -11 13 -3 40 -12 88 -25 129 -8 26 -12 49 -9 52 3 4 0 6 -6 6 -6 0 -9 6
-6 14 3 8 1 17 -5 21 -6 3 -11 17 -11 29 0 13 -7 29 -15 36 -9 7 -14 15 -11
17 9 9 -87 179 -142 252 -52 69 -166 190 -221 234 -123 99 -338 212 -461 243
-8 2 -49 12 -90 23 -91 24 -130 31 -195 36 -27 1 -50 4 -50 5 0 3 -107 5 -110
2z"/>
</g>
</svg>
